<?xml version="1.0" standalone="no"?>
<!DOCTYPE svg PUBLIC "-//W3C//DTD SVG 20010904//EN"
 "http://www.w3.org/TR/2001/REC-SVG-20010904/DTD/svg10.dtd">
<svg version="1.0" xmlns="http://www.w3.org/2000/svg"
 width="1280.000000pt" height="1264.000000pt" viewBox="0 0 1280.000000 1264.000000"
 preserveAspectRatio="xMidYMid meet">
<g transform="translate(0.000000,1264.000000) scale(0.100000,-0.100000)"
fill="#000000" stroke="none">
<path d="M5459 12413 c-112 -115 -355 -368 -538 -563 -184 -195 -340 -358
-346 -362 -6 -4 -189 100 -421 239 -1123 674 -1330 793 -1381 793 l-26 0 6
-157 c4 -87 25 -387 46 -668 64 -828 66 -871 46 -940 -57 -196 -195 -372 -690
-875 -281 -285 -354 -371 -400 -471 -58 -128 -63 -177 -75 -764 -9 -456 -9
-456 -89 -687 -134 -385 -253 -602 -741 -1343 -464 -705 -570 -891 -688 -1210
-70 -189 -109 -333 -132 -495 -6 -41 -15 -107 -22 -147 -12 -80 -8 -167 17
-323 49 -310 158 -526 366 -725 98 -94 193 -159 327 -225 204 -100 365 -139
622 -148 l175 -7 6 -92 c9 -118 38 -183 116 -262 79 -78 137 -105 239 -109
221 -10 473 131 666 373 114 143 210 302 420 695 247 461 373 645 574 840 240
232 464 374 1219 775 762 404 955 520 1444 861 37 26 68 41 73 36 5 -5 18 -78
30 -163 36 -275 27 -947 -18 -1229 -73 -468 -320 -1074 -616 -1518 -124 -185
-233 -305 -822 -902 -608 -616 -772 -797 -919 -1020 -159 -241 -272 -542 -323
-858 -30 -190 -29 -553 2 -729 l6 -33 4594 0 4594 0 0 21 c0 11 -4 73 -10 137
-5 65 -14 263 -20 442 -71 2148 -445 4380 -1052 6275 -400 1251 -839 2100
-1429 2767 -703 793 -1508 1255 -2464 1412 -391 65 -865 68 -1268 9 -91 -13
-110 -13 -124 -2 -21 17 -203 391 -393 804 -190 412 -356 755 -368 755 -5 0
-101 -93 -213 -207z"/>
</g>
</svg>
